# xmcd CD Database Entry
#
# Track frame offsets:
# 150
# 21525
# 34425
# 62325
# 79275
# 99000
# 121500
# 142200
# 156150
# 177375
# 205875
# 223425
#
# Disc length: 3315 seconds
#
# Revision: 1
# Processed by: cddbd v1.4PL0 Copyright (c) Steve Scherf et al.
# Submitted via: tcd 2.0b
#
DISCID=ae0cf10c
DTITLE=不明了
DYEAR=1900
DGENRE=
TTITLE0=第 1 音轨
TTITLE1=第 2 音轨
TTITLE2=第 3 音轨
TTITLE3=第 4 音轨
TTITLE4=第 5 音轨
TTITLE5=第 6 音轨
TTITLE6=第 7 音轨
TTITLE7=第 8 音轨
TTITLE8=第 9 音轨
TTITLE9=第 10 音轨
TTITLE10=第 11 音轨
TTITLE11=第 12 音轨
EXTD=
EXTT0=
EXTT1=
EXTT2=
EXTT3=
EXTT4=
EXTT5=
EXTT6=
EXTT7=
EXTT8=
EXTT9=
EXTT10=
EXTT11=
PLAYORDER=
